<?xml version="1.0" encoding="UTF-8"?>
<svg version="1.1" xmlns="http://www.w3.org/2000/svg" width="360" height="360">
<path d="M0 0 C118.8 0 237.6 0 360 0 C360 118.8 360 237.6 360 360 C241.2 360 122.4 360 0 360 C0 241.2 0 122.4 0 0 Z " fill="#FEFEFE" transform="translate(0,0)"/>
<path d="M0 0 C3.96 0 7.92 0 12 0 C12.33 7.59 12.66 15.18 13 23 C18.94 11.615 18.94 11.615 25 0 C29.95 0 34.9 0 40 0 C38.75256064 2.5221286 37.50212931 5.04270078 36.25 7.5625 C35.90195312 8.26697266 35.55390625 8.97144531 35.1953125 9.69726562 C34.67324219 10.74624023 34.67324219 10.74624023 34.140625 11.81640625 C33.79193359 12.51910645 33.44324219 13.22180664 33.08398438 13.94580078 C32.04008774 15.92403193 30.8764326 17.76931545 29.671875 19.65234375 C27.68389628 23.63294599 27.67946654 24.80964581 29 29 C30.19570842 32.1695763 31.51426671 35.27311336 32.875 38.375 C40 54.81730769 40 54.81730769 40 59 C35.38 59 30.76 59 26 59 C22.535 49.1 22.535 49.1 19 39 C17.35 40.65 15.7 42.3 14 44 C13.505 44.495 13.505 44.495 13 45 C12.76472227 47.34987262 12.58613583 49.70556039 12.4375 52.0625 C12.35371094 53.35285156 12.26992188 54.64320313 12.18359375 55.97265625 C12.12300781 56.97167969 12.06242187 57.97070312 12 59 C8.04 59 4.08 59 0 59 C0 39.53 0 20.06 0 0 Z " fill="#0591E6" transform="translate(19,142)"/>
<path d="M0 0 C6.25803809 2.78135026 9.04791505 8.09583011 12 14 C12.1377685 17.67015275 12.04271961 21.32611348 12 25 C8.37 25 4.74 25 1 25 C0.54427083 22.98177083 0.08854167 20.96354167 -0.3671875 18.9453125 C-0.90474428 16.79280036 -0.90474428 16.79280036 -3 15 C-5.45741537 14.49985047 -5.45741537 14.49985047 -8 15 C-10.80727952 17.93427351 -11.3828347 20.02076692 -11.3984375 24.02734375 C-11.40230469 24.98447266 -11.40617188 25.94160156 -11.41015625 26.92773438 C-11.39855469 27.92095703 -11.38695312 28.91417969 -11.375 29.9375 C-11.38660156 30.92685547 -11.39820313 31.91621094 -11.41015625 32.93554688 C-11.45435378 40.00573436 -11.45435378 40.00573436 -8 46 C-5.14624699 46.5707506 -3.73989221 46.44922027 -1.25 44.9375 C0.57905748 42.10246091 0.68754809 39.31199025 1 36 C4.63 36 8.26 36 12 36 C12.37080282 43.91046009 11.53867331 49.9732742 6.625 56.375 C2.60194391 60.39805609 -0.37905411 61.10872714 -5.9375 61.375 C-11.93373947 61.24135425 -15.00412473 58.99587527 -19.1875 54.8125 C-25.80977754 44.53655209 -26.61213461 29.84303247 -24.46875 18.0859375 C-22.43448292 10.76699832 -19.28074003 5.46263107 -13 1 C-9.04401183 -0.97799408 -4.31184376 -0.42141249 0 0 Z " fill="#0490E6" transform="translate(243,141)"/>
<path d="M0 0 C4.83375357 1.99655039 7.65706163 5.48199056 10.09375 10.05078125 C11.4032719 14.31237193 11.32881053 18.3792984 11.3125 22.8125 C11.32861328 23.67681641 11.34472656 24.54113281 11.36132812 25.43164062 C11.36594083 31.54347623 10.89884621 37.80492498 6.58325195 42.56152344 C2.28981063 46.29287815 -1.27444763 47.35802641 -6.9375 47.28515625 C-11.1568245 46.70180267 -13.93543841 44.1406017 -16.75 41.125 C-20.08628754 35.45331119 -20.3376434 30.02148074 -20.3125 23.625 C-20.32861328 22.81289062 -20.34472656 22.00078125 -20.36132812 21.1640625 C-20.36650627 14.70173712 -19.33247703 9.31620077 -15.52734375 3.90625 C-10.64787658 -0.40974062 -6.39092848 -1.0868926 0 0 Z " fill="#0490E6" transform="translate(202,155)"/>
<path d="M0 0 C2.97926895 1.51172131 5.10401914 3.24450781 7 6 C8.07971538 9.3130483 8.11535471 12.39047623 8.09765625 15.859375 C8.09443359 16.97441406 8.09121094 18.08945313 8.08789062 19.23828125 C8.07951172 20.39714844 8.07113281 21.55601562 8.0625 22.75 C8.05798828 23.92433594 8.05347656 25.09867188 8.04882812 26.30859375 C8.03705094 29.20578072 8.02060326 32.10286454 8 35 C9.32 35 10.64 35 12 35 C12 38.63 12 42.26 12 46 C8.44646071 47.1845131 5.72986522 47.26641894 2 47 C0.0625 45.625 0.0625 45.625 -1 44 C-1 43.34 -1 42.68 -1 42 C-1.99 42.825 -2.98 43.65 -4 44.5 C-8.23992005 47.51257477 -10.8663603 47.74520576 -16 47 C-18.8100346 45.20636089 -20.50940468 43.98119065 -22 41 C-23.02314815 26.75462963 -23.02314815 26.75462963 -19 22 C-13.78447243 18.69995561 -9.10940622 17.48005053 -3 18 C-3.33 16.02 -3.66 14.04 -4 12 C-5.98 12 -7.96 12 -10 12 C-10.33 12.99 -10.66 13.98 -11 15 C-14.63 15 -18.26 15 -22 15 C-21.6173991 9.35663672 -21.22146091 6.10084774 -17 2 C-11.89000218 -1.23098517 -5.79945339 -0.81741992 0 0 Z " fill="#0490E6" transform="translate(144,155)"/>
<path d="M0 0 C1.52947266 -0.02513672 1.52947266 -0.02513672 3.08984375 -0.05078125 C7.63155472 0.50425045 10.06107458 2.25603847 13.17260742 5.53857422 C15.39313473 8.79779541 15.59488312 10.58094336 15.671875 14.48828125 C15.70410156 15.64521484 15.73632812 16.80214844 15.76953125 17.99414062 C15.78371094 19.19232422 15.79789062 20.39050781 15.8125 21.625 C15.84214844 22.84251953 15.87179687 24.06003906 15.90234375 25.31445312 C15.97291823 28.31386833 16.02567864 31.3125117 16.0625 34.3125 C17.0525 34.6425 18.0425 34.9725 19.0625 35.3125 C19.0625 38.9425 19.0625 42.5725 19.0625 46.3125 C10.73892363 47.65896088 10.73892363 47.65896088 7.5 46 C6.0625 44.3125 6.0625 44.3125 6.0625 42.3125 C5.299375 42.951875 4.53625 43.59125 3.75 44.25 C-0.44017418 47.46571506 -3.74310131 47.76029299 -8.9375 47.3125 C-11.69079021 45.51687595 -13.46377461 44.25995078 -14.9375 41.3125 C-15.41542232 35.20136217 -15.74548832 29.38516568 -13.5 23.625 C-9.0760618 19.63266553 -4.2483207 18.43412214 1.625 18.125 C2.8315625 18.2178125 2.8315625 18.2178125 4.0625 18.3125 C3.7325 16.3325 3.4025 14.3525 3.0625 12.3125 C1.0825 12.3125 -0.8975 12.3125 -2.9375 12.3125 C-3.2675 13.3025 -3.5975 14.2925 -3.9375 15.3125 C-7.5675 15.3125 -11.1975 15.3125 -14.9375 15.3125 C-14.50354691 9.88808638 -13.38818767 6.55191629 -9.9375 2.3125 C-6.65425006 0.17693477 -3.87208721 0.0146485 0 0 Z " fill="#0992E6" transform="translate(274.9375,154.6875)"/>
<path d="M0 0 C3.83158105 1.31510667 6.42084404 3.22779206 8.875 6.5 C11.74012781 12.86695068 11.06901008 19.0989918 11 26 C4.07 26 -2.86 26 -10 26 C-9.23455149 30.91589599 -9.23455149 30.91589599 -7 35 C-5.00041636 35.04080783 -2.99954746 35.04254356 -1 35 C-0.34 33.35 0.32 31.7 1 30 C4.3 30 7.6 30 11 30 C10.22826087 40.34130435 10.22826087 40.34130435 7 44 C1.82106635 47.00378152 -3.04708265 47.96680592 -9 47 C-15.15111189 43.98247341 -18.04679827 39.76428503 -20.25 33.375 C-22.11138418 24.58792513 -21.81522097 15.218559 -18 7 C-12.605202 0.5262424 -8.17538354 -1.00486505 0 0 Z " fill="#0490E6" transform="translate(342,155)"/>
<path d="M0 0 C5.2231645 1.74105483 7.36565429 4.21915038 10 9 C11.82919626 14.38068769 11.05583144 20.41685558 11 26 C4.07 26 -2.86 26 -10 26 C-9.01 28.97 -8.02 31.94 -7 35 C-5.02 35 -3.04 35 -1 35 C-0.34 33.35 0.32 31.7 1 30 C4.3 30 7.6 30 11 30 C11.31464883 35.24414718 10.83856733 38.53939419 8 43 C3.69836654 47.02410872 -1.06378758 47.3668713 -6.75390625 47.2734375 C-10.38684488 46.83116671 -12.3191004 45.43151359 -15 43 C-19.54907209 36.4534187 -20.23349767 31.62776233 -20.3125 23.875 C-20.34150391 22.94945312 -20.37050781 22.02390625 -20.40039062 21.0703125 C-20.4734237 13.11532483 -18.60755614 7.98006416 -13.375 2 C-8.78786834 -0.71830024 -5.20604682 -0.76310133 0 0 Z " fill="#0290E8" transform="translate(81,155)"/>
<path d="M0 0 C2.97 0 5.94 0 9 0 C9 4.62 9 9.24 9 14 C10.98 14 12.96 14 15 14 C15 17.63 15 21.26 15 25 C13.02 25 11.04 25 9 25 C9 32.59 9 40.18 9 48 C10.98 48 12.96 48 15 48 C15 51.63 15 55.26 15 59 C10.855272 60.036182 7.24093074 60.64441247 3 60 C0.03141843 57.79259319 -0.82865791 56.51402627 -2 53 C-2.0833804 50.86205475 -2.10733747 48.72157991 -2.09765625 46.58203125 C-2.09282227 44.70161133 -2.09282227 44.70161133 -2.08789062 42.78320312 C-2.07951172 41.47287109 -2.07113281 40.16253906 -2.0625 38.8125 C-2.05748317 37.47721519 -2.05292059 36.14192859 -2.04882812 34.80664062 C-2.03702695 31.53771527 -2.02056297 28.26888009 -2 25 C-3.32 25 -4.64 25 -6 25 C-6 21.37 -6 17.74 -6 14 C-4.68 13.67 -3.36 13.34 -2 13 C-1.34 8.71 -0.68 4.42 0 0 Z " fill="#0692E7" transform="translate(163,142)"/>
<path d="M0 0 C2.31 0 4.62 0 7 0 C7 4.95 7 9.9 7 15 C4.69 15.33 2.38 15.66 0 16 C-2.32452624 19.48678936 -2.29773734 21.06967571 -2.4140625 25.19921875 C-2.47207031 27.01196289 -2.47207031 27.01196289 -2.53125 28.86132812 C-2.57765625 30.7552832 -2.57765625 30.7552832 -2.625 32.6875 C-2.68300781 34.59885742 -2.68300781 34.59885742 -2.7421875 36.54882812 C-2.83657686 39.69907292 -2.9221583 42.84930991 -3 46 C-6.63 46 -10.26 46 -14 46 C-14 31.15 -14 16.3 -14 1 C-11.03 1 -8.06 1 -5 1 C-4.67 2.32 -4.34 3.64 -4 5 C-3.484375 4.175 -2.96875 3.35 -2.4375 2.5 C-1.633125 1.675 -0.82875 0.85 0 0 Z " fill="#0390E5" transform="translate(112,155)"/>
<path d="M0 0 C0 4.95 0 9.9 0 15 C-2.31 15.66 -4.62 16.32 -7 17 C-9.29174077 20.43761116 -9.29524047 21.92071615 -9.4140625 25.98046875 C-9.47207031 27.72553711 -9.47207031 27.72553711 -9.53125 29.50585938 C-9.57765625 31.32827148 -9.57765625 31.32827148 -9.625 33.1875 C-9.66367187 34.41404297 -9.70234375 35.64058594 -9.7421875 36.90429688 C-9.83656103 39.93604656 -9.92214549 42.96778841 -10 46 C-13.3 46 -16.6 46 -20 46 C-20 31.15 -20 16.3 -20 1 C-17.03 1 -14.06 1 -11 1 C-10.67 1.99 -10.34 2.98 -10 4 C-9.46375 3.34 -8.9275 2.68 -8.375 2 C-6 0 -6 0 0 0 Z " fill="#0390E6" transform="translate(318,155)"/>
<path d="M0 0 C0.66 0.33 1.32 0.66 2 1 C2.44921875 2.92578125 2.44921875 2.92578125 2.6875 5.3125 C2.77386719 6.09238281 2.86023438 6.87226563 2.94921875 7.67578125 C2.99984424 9.99287105 2.67173402 11.79287394 2 14 C3.98 14.66 5.96 15.32 8 16 C8.07347656 16.92232422 8.07347656 16.92232422 8.1484375 17.86328125 C8.22320312 18.67152344 8.29796875 19.47976562 8.375 20.3125 C8.44460938 21.11300781 8.51421875 21.91351563 8.5859375 22.73828125 C8.89564426 25.27224441 8.89564426 25.27224441 11 28 C14.08365871 28.2502157 14.08365871 28.2502157 17 28 C17.66 26.35 18.32 24.7 19 23 C22.3 23 25.6 23 29 23 C28.22826087 33.34130435 28.22826087 33.34130435 25 37 C19.82106635 40.00378152 14.95291735 40.96680592 9 40 C2.84888811 36.98247341 -0.04679827 32.76428503 -2.25 26.375 C-4.19127893 17.21076433 -3.23894605 8.71430724 0 0 Z " fill="#0791E6" transform="translate(324,162)"/>
<path d="M0 0 C0.33 0 0.66 0 1 0 C1.33 5.28 1.66 10.56 2 16 C2.99 14.68 3.98 13.36 5 12 C7 10 7 10 9.15478516 9.77294922 C10.02409668 9.78342285 10.8934082 9.79389648 11.7890625 9.8046875 C12.73007813 9.81113281 13.67109375 9.81757813 14.640625 9.82421875 C15.62546875 9.84097656 16.6103125 9.85773438 17.625 9.875 C18.61757812 9.88402344 19.61015625 9.89304688 20.6328125 9.90234375 C23.08878134 9.92595884 25.54427168 9.95889201 28 10 C28 10.33 28 10.66 28 11 C22.06 11 16.12 11 10 11 C10.99 13.97 11.98 16.94 13 20 C14.98 20 16.96 20 19 20 C19.66 18.35 20.32 16.7 21 15 C24.3 15 27.6 15 31 15 C31.31464883 20.24414718 30.83856733 23.53939419 28 28 C23.69836654 32.02410872 18.93621242 32.3668713 13.24609375 32.2734375 C9.61315512 31.83116671 7.6808996 30.43151359 5 28 C2.03426681 23.73200576 -0.1323973 19.85959478 -0.09765625 14.6484375 C-0.09443359 13.79765625 -0.09121094 12.946875 -0.08789062 12.0703125 C-0.07951172 11.18085938 -0.07113281 10.29140625 -0.0625 9.375 C-0.05798828 8.4778125 -0.05347656 7.580625 -0.04882812 6.65625 C-0.03702591 4.43743352 -0.02056155 2.21874982 0 0 Z " fill="#0790E4" transform="translate(61,170)"/>
<path d="M0 0 C-0.33 0.99 -0.66 1.98 -1 3 C-0.67 3.66 -0.34 4.32 0 5 C0.99 5 1.98 5 3 5 C5.00309329 5.31421071 7.00371336 5.6451046 9 6 C9.12529002 11.51276102 9.12529002 11.51276102 8.4375 14.1875 C7.77806294 16.2175204 7.77806294 16.2175204 9 19 C9.33 19.99 9.66 20.98 10 22 C3.57142857 27.35714286 3.57142857 27.35714286 -1.125 27.5625 C-5.37981306 26.94486585 -7.04010293 26.04959092 -10 23 C-12.19551291 18.60897418 -11.33192094 12.79247258 -11 8 C-8.86508685 2.00191068 -6.45997313 -0.34918774 0 0 Z " fill="#0791E6" transform="translate(133,175)"/>
<path d="M0 0 C2.23167185 -0.36856864 2.23167185 -0.36856864 4 -1 C4 -0.34 4 0.32 4 1 C3.34 1 2.68 1 2 1 C2 1.66 2 2.32 2 3 C2.99 3.33 3.98 3.66 5 4 C5 4.66 5 5.32 5 6 C3.865625 6.391875 2.73125 6.78375 1.5625 7.1875 C-2.1764385 8.58059482 -2.1764385 8.58059482 -2.9375 11.5625 C-2.97541865 13.04132732 -3 14.52068663 -3 16 C-0.03 16 2.94 16 6 16 C5 19 5 19 2.9375 21.5625 C0.79258529 23.74198614 0.79258529 23.74198614 1 26 C-2.10048928 27.55024464 -4.57894218 27.28992015 -8 27 C-10.75329021 25.20437595 -12.52627461 23.94745078 -14 21 C-15.04364212 7.65506794 -15.04364212 7.65506794 -12.3125 3.25 C-8.14427445 -0.80557081 -5.52989232 -1.276129 0 0 Z " fill="#0691E6" transform="translate(274,175)"/>
<path d="M0 0 C0 1.32 0 2.64 0 4 C0.66 4 1.32 4 2 4 C2 4.99 2 5.98 2 7 C1.34 7 0.68 7 0 7 C0.33 10.3 0.66 13.6 1 17 C-3 16 -3 16 -4 15 C-4.04080783 13.00041636 -4.04254356 10.99954746 -4 9 C-5.65 9.66 -7.3 10.32 -9 11 C-9 12.98 -9 14.96 -9 17 C-11.47923801 17.02685095 -13.9581884 17.04676547 -16.4375 17.0625 C-17.14455078 17.07087891 -17.85160156 17.07925781 -18.58007812 17.08789062 C-20.38693559 17.09653588 -22.19387603 17.05220011 -24 17 C-25 16 -25 16 -25.0625 12.9375 C-25.041875 11.968125 -25.02125 10.99875 -25 10 C-23.02 9.67 -21.04 9.34 -19 9 C-19 8.34 -19 7.68 -19 7 C-20.98 7.33 -22.96 7.66 -25 8 C-24.34 6.68 -23.68 5.36 -23 4 C-20.625 3.875 -20.625 3.875 -18 4 C-16 6 -16 6 -15.8046875 7.9453125 C-15.86979167 9.96354167 -15.93489583 11.98177083 -16 14 C-15.34 14 -14.68 14 -14 14 C-14 10.7 -14 7.4 -14 4 C-11.36 4 -8.72 4 -6 4 C-5.67 3.01 -5.34 2.02 -5 1 C-3 0 -3 0 0 0 Z " fill="#C1E8F3" transform="translate(277,217)"/>
<path d="M0 0 C2.5 0.625 2.5 0.625 4.1328125 2.69140625 C5.84592013 6.36724577 5.89909765 9.14311103 5.875 13.1875 C5.88273438 14.48816406 5.89046875 15.78882813 5.8984375 17.12890625 C5.49032465 20.70989642 5.07078911 22.15876451 2.5 24.625 C0 25.125 0 25.125 -2.5 24.625 C-5.07078911 22.15876451 -5.49032465 20.70989642 -5.8984375 17.12890625 C-5.89070312 15.82824219 -5.88296875 14.52757812 -5.875 13.1875 C-5.88273438 11.88941406 -5.89046875 10.59132812 -5.8984375 9.25390625 C-5.41083945 4.81293967 -4.66743905 1.16685976 0 0 Z " fill="#EDF8FA" transform="translate(197.5,165.375)"/>
<path d="M0 0 C1.8828125 0.9140625 1.8828125 0.9140625 4.8203125 3.3515625 C5.7578125 7.1015625 5.7578125 7.1015625 5.8203125 10.3515625 C3.5103125 10.6815625 1.2003125 11.0115625 -1.1796875 11.3515625 C-1.1796875 13.6615625 -1.1796875 15.9715625 -1.1796875 18.3515625 C-4.8096875 18.3515625 -8.4396875 18.3515625 -12.1796875 18.3515625 C-11.73056833 13.4112516 -10.60211129 11.77398629 -7.1796875 8.3515625 C-6.84470449 5.68321284 -6.84470449 5.68321284 -7.1796875 3.3515625 C-7.5096875 4.0115625 -7.8396875 4.6715625 -8.1796875 5.3515625 C-10.6171875 4.5390625 -10.6171875 4.5390625 -13.1796875 3.3515625 C-13.5096875 2.3615625 -13.8396875 1.3715625 -14.1796875 0.3515625 C-9.96265221 -1.75695514 -4.43893667 -1.32054389 0 0 Z " fill="#0392EA" transform="translate(344.1796875,155.6484375)"/>
<path d="M0 0 C1.8125 1.5 1.8125 1.5 3 3 C3.33 2.01 3.66 1.02 4 0 C5.32 0 6.64 0 8 0 C8 2.97 8 5.94 8 9 C8.99 9 9.98 9 11 9 C11 6.03 11 3.06 11 0 C11.99 0 12.98 0 14 0 C14 4.29 14 8.58 14 13 C12.68 12.67 11.36 12.34 10 12 C8.65764964 12.29493119 7.32433465 12.63254029 6 13 C4.1501453 13.16377523 2.29397021 13.26450961 0.4375 13.3125 C-0.51253906 13.34988281 -1.46257813 13.38726562 -2.44140625 13.42578125 C-5 13 -5 13 -6.81640625 11.171875 C-8.41053516 8.24667475 -8.41900445 6.2822015 -8 3 C-5.90534242 -0.30735407 -3.75951639 -0.56392746 0 0 Z " fill="#2699DB" transform="translate(57,221)"/>
<path d="M0 0 C0.33 1.32 0.66 2.64 1 4 C1.66 4 2.32 4 3 4 C2.67 5.65 2.34 7.3 2 9 C2.61875 8.649375 3.2375 8.29875 3.875 7.9375 C4.57625 7.628125 5.2775 7.31875 6 7 C6.66 7.33 7.32 7.66 8 8 C8.66 7.01 9.32 6.02 10 5 C10.66 5.33 11.32 5.66 12 6 C11.67 6.66 11.34 7.32 11 8 C10.84932786 9.4465242 10.75138964 10.8987934 10.68359375 12.3515625 C10.64169922 13.20234375 10.59980469 14.053125 10.55664062 14.9296875 C10.51732422 15.81914062 10.47800781 16.70859375 10.4375 17.625 C10.39431641 18.5221875 10.35113281 19.419375 10.30664062 20.34375 C10.20043139 22.56234283 10.09838806 24.7810488 10 27 C9.67 27 9.34 27 9 27 C8.67 23.04 8.34 19.08 8 15 C7.01 15.495 7.01 15.495 6 16 C5.53476937 17.89533342 5.53476937 17.89533342 5.375 20.0625 C5.25125 21.361875 5.1275 22.66125 5 24 C4.34 24 3.68 24 3 24 C2.34 24.66 1.68 25.32 1 26 C0.67 25.67 0.34 25.34 0 25 C0.20625 26.0725 0.4125 27.145 0.625 28.25 C1.00483054 32.04830539 0.80602252 32.8842665 -1 36 C-3.52154721 23.70745735 -4.60747898 11.90265402 0 0 Z " fill="#1395E4" transform="translate(221,152)"/>
<path d="M0 0 C2.475 0.495 2.475 0.495 5 1 C5 4.63 5 8.26 5 12 C5.99 11.34 6.98 10.68 8 10 C9.32 10 10.64 10 12 10 C12 9.34 12 8.68 12 8 C10.02 8.33 8.04 8.66 6 9 C6.66 7.68 7.32 6.36 8 5 C14.875 5.875 14.875 5.875 16 7 C16.46212633 10.6570738 16.70429173 14.32476863 17 18 C11.39 18 5.78 18 0 18 C0 12.06 0 6.12 0 0 Z " fill="#BCE6F3" transform="translate(175,216)"/>
<path d="M0 0 C2.97 0 5.94 0 9 0 C9 4.62 9 9.24 9 14 C10.98 14 12.96 14 15 14 C15 17.63 15 21.26 15 25 C14.67 25 14.34 25 14 25 C13.67 22.03 13.34 19.06 13 16 C11.68 16.33 10.36 16.66 9 17 C8.01 17 7.02 17 6 17 C6.66 16.67 7.32 16.34 8 16 C8 14.35 8 12.7 8 11 C7.34 11 6.68 11 6 11 C6 11.66 6 12.32 6 13 C5.113125 13.144375 4.22625 13.28875 3.3125 13.4375 C0.52882354 13.91019978 -2.23483757 14.43070185 -5 15 C-5 15.66 -5 16.32 -5 17 C-4.34 17.33 -3.68 17.66 -3 18 C-3.66 18 -4.32 18 -5 18 C-5 19.98 -5 21.96 -5 24 C-4.01 24.33 -3.02 24.66 -2 25 C-3.32 25 -4.64 25 -6 25 C-6 21.37 -6 17.74 -6 14 C-4.68 13.67 -3.36 13.34 -2 13 C-1.34 8.71 -0.68 4.42 0 0 Z " fill="#1D98E3" transform="translate(163,142)"/>
<path d="M0 0 C1.32 0 2.64 0 4 0 C4.66 1.32 5.32 2.64 6 4 C6.33 3.01 6.66 2.02 7 1 C7.99 1 8.98 1 10 1 C10 2.32 10 3.64 10 5 C10.66 5 11.32 5 12 5 C12 5.99 12 6.98 12 8 C11.34 8 10.68 8 10 8 C10 10.31 10 12.62 10 15 C10.66 15 11.32 15 12 15 C12 15.99 12 16.98 12 18 C7.125 17.125 7.125 17.125 6 16 C5.95907063 13.66702567 5.95758277 11.33294775 6 9 C5.34 9 4.68 9 4 9 C4 11.97 4 14.94 4 18 C2.68 18 1.36 18 0 18 C0 12.06 0 6.12 0 0 Z " fill="#8EC8E7" transform="translate(201,216)"/>
<path d="M0 0 C0.33 0 0.66 0 1 0 C1 5.61 1 11.22 1 17 C3.31 17.33 5.62 17.66 8 18 C8 12.39 8 6.78 8 1 C7.01 0.67 6.02 0.34 5 0 C6.32 0 7.64 0 9 0 C9.01458252 0.81678223 9.02916504 1.63356445 9.04418945 2.47509766 C9.11886923 6.1921976 9.21546612 9.90841919 9.3125 13.625 C9.33505859 14.91019531 9.35761719 16.19539063 9.38085938 17.51953125 C9.41630859 18.76347656 9.45175781 20.00742188 9.48828125 21.2890625 C9.51446533 22.43068848 9.54064941 23.57231445 9.56762695 24.74853516 C10.04764909 28.35832329 11.20936759 30.85232254 13 34 C7.25 35.125 7.25 35.125 5 34 C4.67 34.66 4.34 35.32 4 36 C4 31.71 4 27.42 4 23 C2.68 23 1.36 23 0 23 C0 15.41 0 7.82 0 0 Z " fill="#E2F5F9" transform="translate(152,167)"/>
<path d="M0 0 C0.721875 0.103125 1.44375 0.20625 2.1875 0.3125 C1.8575 1.3025 1.5275 2.2925 1.1875 3.3125 C1.5175 3.9725 1.8475 4.6325 2.1875 5.3125 C3.1775 5.3125 4.1675 5.3125 5.1875 5.3125 C7.19059329 5.62671071 9.19121336 5.9576046 11.1875 6.3125 C11.40681821 9.52916704 11.45578383 11.74612303 10.0625 14.6875 C8.1875 16.3125 8.1875 16.3125 5 16.5625 C4.071875 16.48 3.14375 16.3975 2.1875 16.3125 C0.83310332 13.60370665 1.12248549 11.30316732 1.1875 8.3125 C-1.4525 8.3125 -4.0925 8.3125 -6.8125 8.3125 C-7.1425 7.3225 -7.4725 6.3325 -7.8125 5.3125 C-3.50480769 0.38942308 -3.50480769 0.38942308 0 0 Z " fill="#1797E3" transform="translate(130.8125,174.6875)"/>
<path d="M0 0 C1.32 0 2.64 0 4 0 C4 1.98 4 3.96 4 6 C5.32 6 6.64 6 8 6 C8 4.02 8 2.04 8 0 C9.32 0 10.64 0 12 0 C12 5.61 12 11.22 12 17 C10.68 17 9.36 17 8 17 C8 14.69 8 12.38 8 10 C6.68 10 5.36 10 4 10 C4 12.31 4 14.62 4 17 C2.68 17 1.36 17 0 17 C0 11.39 0 5.78 0 0 Z " fill="#1996DF" transform="translate(297,217)"/>
<path d="M0 0 C0.99 7.59 1.98 15.18 3 23 C-0.33333333 24.33333333 -3.66666667 25.66666667 -7 27 C-6.84660156 26.22398437 -6.69320312 25.44796875 -6.53515625 24.6484375 C-5.85009286 19.97800532 -5.64253523 15.33744915 -5.4375 10.625 C-5.39431641 9.69816406 -5.35113281 8.77132812 -5.30664062 7.81640625 C-5.20123814 5.54439706 -5.09911394 3.27229075 -5 1 C-3 0 -3 0 0 0 Z " fill="#E5F4F8" transform="translate(218,167)"/>
<path d="M0 0 C0.33 0 0.66 0 1 0 C1.02708567 1.60407328 1.04643483 3.2082785 1.0625 4.8125 C1.07410156 5.70582031 1.08570313 6.59914062 1.09765625 7.51953125 C1 10 1 10 0 13 C-3.3 13 -6.6 13 -10 13 C-10.144375 13.804375 -10.28875 14.60875 -10.4375 15.4375 C-11 18 -11 18 -12 19 C-14.875 19.3125 -14.875 19.3125 -18 19 C-19.875 17.375 -19.875 17.375 -21 15 C-21 13.02 -21 11.04 -21 9 C-14.07 9 -7.14 9 0 9 C0 6.03 0 3.06 0 0 Z " fill="#DEF1F7" transform="translate(353,172)"/>
<path d="M0 0 C0.33 0 0.66 0 1 0 C1 3.96 1 7.92 1 12 C0.01 12.33 -0.98 12.66 -2 13 C-1.01 13.33 -0.02 13.66 1 14 C1 15.65 1 17.3 1 19 C0.67 17.68 0.34 16.36 0 15 C-3.3 15 -6.6 15 -10 15 C-10.144375 15.804375 -10.28875 16.60875 -10.4375 17.4375 C-11 20 -11 20 -12 21 C-14.875 21.375 -14.875 21.375 -18 21 C-21.05966059 17.43039598 -21 15.86822069 -21 11 C-14.07 11 -7.14 11 0 11 C0 7.37 0 3.74 0 0 Z " fill="#D5EDF6" transform="translate(92,170)"/>
<path d="M0 0 C2.52588702 2.36292656 3.88820837 3.66462511 5 7 C3.35 8.32 1.7 9.64 0 11 C0.66 11.33 1.32 11.66 2 12 C2 12.66 2 13.32 2 14 C1.34 14 0.68 14 0 14 C0 14.66 0 15.32 0 16 C-4.95 16 -9.9 16 -15 16 C-14 10 -14 10 -12 8 C-9.6171875 7.5859375 -9.6171875 7.5859375 -6.875 7.375 C-5.96492188 7.30023438 -5.05484375 7.22546875 -4.1171875 7.1484375 C-3.06917969 7.07496094 -3.06917969 7.07496094 -2 7 C-2 7.66 -2 8.32 -2 9 C-1.34 9 -0.68 9 0 9 C-0.33 7.68 -0.66 6.36 -1 5 C-0.34 5 0.32 5 1 5 C0.67 3.35 0.34 1.7 0 0 Z " fill="#1394DF" transform="translate(86,158)"/>
<path d="M0 0 C3 0.125 3 0.125 6 1 C7.375 3.0625 7.375 3.0625 8 5 C5.69 4.67 3.38 4.34 1 4 C1 4.66 1 5.32 1 6 C1.969375 6.309375 2.93875 6.61875 3.9375 6.9375 C7 8 7 8 8 9 C7.71269945 11.33944736 7.38063221 13.6739143 7 16 C0.53104925 17.34261242 0.53104925 17.34261242 -1.9375 15.75 C-3 14 -3 14 -3 11 C-2.34 10.67 -1.68 10.34 -1 10 C-1.66 9.01 -2.32 8.02 -3 7 C-2.6758631 3.67759676 -2.39223697 2.39223697 0 0 Z " fill="#1591DC" transform="translate(234,217)"/>
<path d="M0 0 C8 0 8 0 10.0625 1.0625 C11.56668055 4.17113981 10.72765436 6.72555538 10 10 C9 11 9 11 6.4375 11.0625 C5.633125 11.041875 4.82875 11.02125 4 11 C4 12.65 4 14.3 4 16 C2.68 16 1.36 16 0 16 C0 10.72 0 5.44 0 0 Z " fill="#068EE0" transform="translate(87,217)"/>
<path d="M0 0 C1.093125 0.226875 2.18625 0.45375 3.3125 0.6875 C3.6425 2.6675 3.9725 4.6475 4.3125 6.6875 C3.3225 6.6875 2.3325 6.6875 1.3125 6.6875 C0.9825 6.0275 0.6525 5.3675 0.3125 4.6875 C-0.6775 4.6875 -1.6675 4.6875 -2.6875 4.6875 C-2.6875 7.3275 -2.6875 9.9675 -2.6875 12.6875 C-1.6975 12.3575 -0.7075 12.0275 0.3125 11.6875 C0.6425 11.0275 0.9725 10.3675 1.3125 9.6875 C2.3025 9.6875 3.2925 9.6875 4.3125 9.6875 C3.5625 14.4375 3.5625 14.4375 1.3125 16.6875 C-1.45506081 17.04231549 -3.02058758 17.1665946 -5.32421875 15.51171875 C-7.19263683 13.01157192 -7.08744439 11.2806045 -7.0625 8.1875 C-7.07023438 7.2284375 -7.07796875 6.269375 -7.0859375 5.28125 C-6.6875 2.6875 -6.6875 2.6875 -5.39453125 0.82421875 C-3.6875 -0.3125 -3.6875 -0.3125 0 0 Z " fill="#1391DD" transform="translate(168.6875,217.3125)"/>
<path d="M0 0 C6.875 0.875 6.875 0.875 8 2 C8.23363881 3.84891946 8.41303635 5.70488031 8.5625 7.5625 C8.64628906 8.57441406 8.73007813 9.58632812 8.81640625 10.62890625 C8.87699219 11.41136719 8.93757813 12.19382813 9 13 C7.35425434 13.02688151 5.70838587 13.04634123 4.0625 13.0625 C3.14597656 13.07410156 2.22945313 13.08570313 1.28515625 13.09765625 C-1 13 -1 13 -2 12 C-2.1875 9.5625 -2.1875 9.5625 -2 7 C-1.34 6.34 -0.68 5.68 0 5 C1.32 5 2.64 5 4 5 C4 4.34 4 3.68 4 3 C2.02 3.33 0.04 3.66 -2 4 C-1.34 2.68 -0.68 1.36 0 0 Z " fill="#1791D9" transform="translate(101,221)"/>
<path d="M0 0 C2.83181098 -0.43566323 4.36063578 -0.39684676 6.8125 1.125 C8.55957504 3.88353953 8.39203417 5.79838764 8 9 C6.8125 11.375 6.8125 11.375 5 13 C2.4375 13.4375 2.4375 13.4375 0 13 C-2.45811625 9.31282562 -2.31118164 7.35654296 -2 3 C-1.34 2.01 -0.68 1.02 0 0 Z " fill="#1591DC" transform="translate(146,221)"/>
<path d="M0 0 C2 2 2 2 2.125 4.625 C2.08375 5.40875 2.0425 6.1925 2 7 C0.02 7 -1.96 7 -4 7 C-4 7.99 -4 8.98 -4 10 C-3.01 10 -2.02 10 -1 10 C-1 9.34 -1 8.68 -1 8 C-0.01 8 0.98 8 2 8 C1.125 11.875 1.125 11.875 0 13 C-2.73531209 13.28792759 -4.41243666 13.34443368 -6.8125 11.9375 C-8.67036623 8.90624457 -8.37133265 6.46577141 -8 3 C-5.94362059 -0.35514536 -3.76397853 -0.48256135 0 0 Z " fill="#2196DB" transform="translate(339,221)"/>
<path d="M0 0 C2.375 -0.125 2.375 -0.125 5 0 C7.58926331 2.58926331 7.37398043 4.02705279 7.625 7.625 C7.69976562 8.62789062 7.77453125 9.63078125 7.8515625 10.6640625 C7.92503906 11.82035156 7.92503906 11.82035156 8 13 C6.52093108 13.02689216 5.04172517 13.04634621 3.5625 13.0625 C2.32693359 13.07990234 2.32693359 13.07990234 1.06640625 13.09765625 C-1 13 -1 13 -2 12 C-2.04080783 10.00041636 -2.04254356 7.99954746 -2 6 C-0.02 5.67 1.96 5.34 4 5 C4 4.34 4 3.68 4 3 C2.02 3.33 0.04 3.66 -2 4 C-1.34 2.68 -0.68 1.36 0 0 Z " fill="#068BD9" transform="translate(254,221)"/>
<path d="M0 0 C1.32 0 2.64 0 4 0 C4.66 1.32 5.32 2.64 6 4 C6.66 3.01 7.32 2.02 8 1 C9.32 1 10.64 1 12 1 C11.566875 2.175625 11.566875 2.175625 11.125 3.375 C9.73239716 7.8622758 8.85728019 12.385279 8 17 C6.68 17 5.36 17 4 17 C3.96261719 16.41992188 3.92523438 15.83984375 3.88671875 15.2421875 C3.45809099 10.14908122 2.5386772 6.52546806 0 2 C0 1.34 0 0.68 0 0 Z " fill="#1693DE" transform="translate(37,217)"/>
<path d="M0 0 C0.99 0 1.98 0 3 0 C3.33 1.32 3.66 2.64 4 4 C5.65 4.33 7.3 4.66 9 5 C9 8.63 9 12.26 9 16 C8.01 16 7.02 16 6 16 C5.67 13.36 5.34 10.72 5 8 C4.67 8 4.34 8 4 8 C3.67 10.64 3.34 13.28 3 16 C2.01 16 1.02 16 0 16 C0 10.72 0 5.44 0 0 Z " fill="#0288DC" transform="translate(119,217)"/>
<path d="M0 0 C2.31 0 4.62 0 7 0 C6.34 1.98 5.68 3.96 5 6 C5.99 6.33 6.98 6.66 8 7 C8 7.66 8 8.32 8 9 C4.47005387 10.17664871 1.70544587 10.19850603 -2 10 C-2.99 9.34 -3.98 8.68 -5 8 C-5.1875 5.375 -5.1875 5.375 -5 3 C-3.35 3 -1.7 3 0 3 C0 2.01 0 1.02 0 0 Z " fill="#0190E8" transform="translate(271,155)"/>
<path d="M0 0 C2 2 2 2 2.125 4.625 C2.08375 5.40875 2.0425 6.1925 2 7 C0.02 7 -1.96 7 -4 7 C-4 6.34 -4 5.68 -4 5 C-3.01 5 -2.02 5 -1 5 C-1 4.34 -1 3.68 -1 3 C-1.99 3.33 -2.98 3.66 -4 4 C-4.33 4.99 -4.66 5.98 -5 7 C-4.67 7.66 -4.34 8.32 -4 9 C-3.01 9.33 -2.02 9.66 -1 10 C-1 9.34 -1 8.68 -1 8 C-0.01 8 0.98 8 2 8 C1.125 11.875 1.125 11.875 0 13 C-2.73531209 13.28792759 -4.41243666 13.34443368 -6.8125 11.9375 C-8.67036623 8.90624457 -8.37133265 6.46577141 -8 3 C-5.94362059 -0.35514536 -3.76397853 -0.48256135 0 0 Z " fill="#1893DE" transform="translate(319,221)"/>
<path d="M0 0 C0.99 0 1.98 0 3 0 C3 2.97 3 5.94 3 9 C3.99 9 4.98 9 6 9 C6 6.03 6 3.06 6 0 C6.99 0 7.98 0 9 0 C9 4.29 9 8.58 9 13 C7.68 12.67 6.36 12.34 5 12 C3.66018514 12.3062434 2.32488113 12.63451555 1 13 C0 12 0 12 -0.09765625 9.27734375 C-0.08605469 8.17519531 -0.07445312 7.07304687 -0.0625 5.9375 C-0.05347656 4.83277344 -0.04445312 3.72804687 -0.03515625 2.58984375 C-0.02355469 1.73519531 -0.01195312 0.88054687 0 0 Z " fill="#1592DD" transform="translate(62,221)"/>
<path d="M0 0 C2.475 0.99 2.475 0.99 5 2 C5.33 8.27 5.66 14.54 6 21 C5.34 21 4.68 21 4 21 C3.67 19.35 3.34 17.7 3 16 C1.35 15.67 -0.3 15.34 -2 15 C-1.34 10.05 -0.68 5.1 0 0 Z " fill="#E4F4F8" transform="translate(255,177)"/>
<path d="M0 0 C0.99 0.33 1.98 0.66 3 1 C2.67 1.33 2.34 1.66 2 2 C2.66 2.33 3.32 2.66 4 3 C4 2.34 4 1.68 4 1 C8.455 1.99 8.455 1.99 13 3 C12.01 3.495 12.01 3.495 11 4 C11.33 6.97 11.66 9.94 12 13 C9.03 13 6.06 13 3 13 C3 12.67 3 12.34 3 12 C5.31 12 7.62 12 10 12 C9.67 10.02 9.34 8.04 9 6 C7.02 6 5.04 6 3 6 C2.67 6.99 2.34 7.98 2 9 C-1.63 9 -5.26 9 -9 9 C-8.67 7.68 -8.34 6.36 -8 5 C-8 5.99 -8 6.98 -8 8 C-6.02 8 -4.04 8 -2 8 C-1.06576355 4.98968256 -0.95550089 4.13349732 -2 1 C-1.34 0.67 -0.68 0.34 0 0 Z " fill="#1E97DF" transform="translate(131,161)"/>
<path d="M0 0 C0.99 0 1.98 0 3 0 C4.35439668 2.70879335 4.06501451 5.00933268 4 8 C4.66 8 5.32 8 6 8 C6.33 5.36 6.66 2.72 7 0 C7.99 0 8.98 0 10 0 C9.35841048 2.64692977 8.71195217 5.29249929 8.0625 7.9375 C7.88009766 8.69224609 7.69769531 9.44699219 7.50976562 10.22460938 C6.11328125 15.88671875 6.11328125 15.88671875 5 17 C3.33382885 17.04063832 1.66611905 17.042721 0 17 C0 16.01 0 15.02 0 14 C0.99 14 1.98 14 3 14 C2.01 9.38 1.02 4.76 0 0 Z " fill="#1291DD" transform="translate(214,221)"/>
<path d="M0 0 C0 0.33 0 0.66 0 1 C0.99 1.33 1.98 1.66 3 2 C0 4 0 4 -3 4 C-3 4.66 -3 5.32 -3 6 C-6 5 -6 5 -7 4 C-7.66 4 -8.32 4 -9 4 C-9 4.66 -9 5.32 -9 6 C-8.34 6.33 -7.68 6.66 -7 7 C-7.66 8.32 -8.32 9.64 -9 11 C-10.98 11 -12.96 11 -15 11 C-15.1875 8.6875 -15.1875 8.6875 -15 6 C-13.5625 4.3125 -13.5625 4.3125 -12 3 C-11.67 2.34 -11.34 1.68 -11 1 C-9.00390625 0.33203125 -9.00390625 0.33203125 -6.5625 -0.1875 C-5.75941406 -0.36667969 -4.95632812 -0.54585937 -4.12890625 -0.73046875 C-2 -1 -2 -1 0 0 Z " fill="#0191EA" transform="translate(138,158)"/>
<path d="M0 0 C0.78375 0.04125 1.5675 0.0825 2.375 0.125 C3.035 1.445 3.695 2.765 4.375 4.125 C2.725 4.125 1.075 4.125 -0.625 4.125 C1.85 5.115 1.85 5.115 4.375 6.125 C4.5 8.5 4.5 8.5 4.375 11.125 C2.375 13.125 2.375 13.125 -0.25 13.25 C-1.03375 13.20875 -1.8175 13.1675 -2.625 13.125 C-3.285 11.805 -3.945 10.485 -4.625 9.125 C-1.655 9.62 -1.655 9.62 1.375 10.125 C1.375 9.465 1.375 8.805 1.375 8.125 C-0.275 7.795 -1.925 7.465 -3.625 7.125 C-4.25 4.75 -4.25 4.75 -4.625 2.125 C-2.625 0.125 -2.625 0.125 0 0 Z " fill="#078DDE" transform="translate(284.625,220.875)"/>
<path d="M0 0 C1.99954746 -0.04254356 4.00041636 -0.04080783 6 0 C7 1 7 1 7 7 C3.04 7.66 -0.92 8.32 -5 9 C-4.67 8.01 -4.34 7.02 -4 6 C-6.31 5.67 -8.62 5.34 -11 5 C-11 4.67 -11 4.34 -11 4 C-7.7 4 -4.4 4 -1 4 C-0.67 2.68 -0.34 1.36 0 0 Z " fill="#EBF9FA" transform="translate(134,166)"/>
<path d="M0 0 C0 0.99 0 1.98 0 3 C-1.32 3.33 -2.64 3.66 -4 4 C-4.144375 5.093125 -4.28875 6.18625 -4.4375 7.3125 C-5 11 -5 11 -6 14 C-4.02 14 -2.04 14 0 14 C0 14.33 0 14.66 0 15 C-3.63 15 -7.26 15 -11 15 C-10.56604691 9.57558638 -9.45068767 6.23941629 -6 2 C-3.76335858 0.55276143 -2.64566409 0 0 0 Z " fill="#1995E0" transform="translate(271,155)"/>
<path d="M0 0 C0.99 0 1.98 0 3 0 C3 1.32 3 2.64 3 4 C3.66 4 4.32 4 5 4 C5 4.99 5 5.98 5 7 C4.34 7 3.68 7 3 7 C3.33 10.3 3.66 13.6 4 17 C0 16 0 16 -1 15 C-1.23363881 13.15108054 -1.41303635 11.29511969 -1.5625 9.4375 C-1.68818359 7.91962891 -1.68818359 7.91962891 -1.81640625 6.37109375 C-1.87699219 5.58863281 -1.93757813 4.80617187 -2 4 C-1.34 4 -0.68 4 0 4 C0 2.68 0 1.36 0 0 Z " fill="#2B9ADC" transform="translate(274,217)"/>
<path d="M0 0 C0.125 3.375 0.125 3.375 0 7 C-2 9 -2 9 -5.125 9.125 C-6.548125 9.063125 -6.548125 9.063125 -8 9 C-9.3260274 3.57534247 -9.3260274 3.57534247 -7.9375 1.125 C-5.24099753 -0.44071111 -3.05869541 -0.20391303 0 0 Z " fill="#DFF3F9" transform="translate(141,182)"/>
<path d="M0 0 C0.125 3.375 0.125 3.375 0 7 C-2 9 -2 9 -5.125 9.125 C-6.548125 9.063125 -6.548125 9.063125 -8 9 C-9.3260274 3.57534247 -9.3260274 3.57534247 -7.9375 1.125 C-5.24099753 -0.44071111 -3.05869541 -0.20391303 0 0 Z " fill="#EBF8F9" transform="translate(279,182)"/>
<path d="M0 0 C0.99 0 1.98 0 3 0 C3 1.32 3 2.64 3 4 C3.66 4 4.32 4 5 4 C5 4.99 5 5.98 5 7 C4.34 7 3.68 7 3 7 C3 9.31 3 11.62 3 14 C3.66 14 4.32 14 5 14 C5 14.99 5 15.98 5 17 C3.35 16.67 1.7 16.34 0 16 C0 13.03 0 10.06 0 7 C-0.66 7 -1.32 7 -2 7 C-2 6.01 -2 5.02 -2 4 C-1.34 4 -0.68 4 0 4 C0 2.68 0 1.36 0 0 Z " fill="#118FDA" transform="translate(112,217)"/>
<path d="M0 0 C1.32 0 2.64 0 4 0 C4 0.66 4 1.32 4 2 C4.99 2 5.98 2 7 2 C7 1.34 7 0.68 7 0 C7.66 0.33 8.32 0.66 9 1 C8.67 1.66 8.34 2.32 8 3 C8.66 3.33 9.32 3.66 10 4 C8.7934375 4.4640625 8.7934375 4.4640625 7.5625 4.9375 C5.10919595 5.76335345 5.10919595 5.76335345 4 7 C4.03222848 9.03039402 4.06811619 11.06128092 4.16015625 13.08984375 C4 15 4 15 2 17 C1.01 16.67 0.02 16.34 -1 16 C-1.50610724 9.92671312 -0.04157942 6.22771463 3 1 C2.01 0.67 1.02 0.34 0 0 Z " fill="#DBF2F7" transform="translate(46,217)"/>
<path d="M0 0 C0.99 0 1.98 0 3 0 C3 1.32 3 2.64 3 4 C3.66 4 4.32 4 5 4 C5 4.99 5 5.98 5 7 C4.34 7 3.68 7 3 7 C3 9.31 3 11.62 3 14 C3.66 14 4.32 14 5 14 C5 14.99 5 15.98 5 17 C3.35 16.67 1.7 16.34 0 16 C0 13.03 0 10.06 0 7 C-0.66 7 -1.32 7 -2 7 C-2 6.01 -2 5.02 -2 4 C-1.34 4 -0.68 4 0 4 C0 2.68 0 1.36 0 0 Z " fill="#1392DC" transform="translate(208,217)"/>
<path d="M0 0 C0.33 0 0.66 0 1 0 C1.06058594 1.16917969 1.12117187 2.33835938 1.18359375 3.54296875 C1.26804034 5.09115614 1.35268625 6.63933268 1.4375 8.1875 C1.47681641 8.95642578 1.51613281 9.72535156 1.55664062 10.51757812 C1.77507034 14.43251075 2.08692108 18.17120688 3 22 C1.68 22 0.36 22 -1 22 C-1.33 24.31 -1.66 26.62 -2 29 C-2.33 29 -2.66 29 -3 29 C-3 25.7 -3 22.4 -3 19 C-4.98 19 -6.96 19 -9 19 C-7.68 17.35 -6.36 15.7 -5 14 C-4.01 14.99 -3.02 15.98 -2 17 C-0.84429296 13.53287889 -0.67164707 10.4585044 -0.4375 6.8125 C-0.35371094 5.54019531 -0.26992187 4.26789063 -0.18359375 2.95703125 C-0.12300781 1.98121094 -0.06242188 1.00539062 0 0 Z " fill="#DAEFF6" transform="translate(181,171)"/>
<path d="M0 0 C0.66 0 1.32 0 2 0 C2 1.32 2 2.64 2 4 C2.66 4 3.32 4 4 4 C4 4.99 4 5.98 4 7 C3.34 7 2.68 7 2 7 C2.66 10.3 3.32 13.6 4 17 C2.35 16.67 0.7 16.34 -1 16 C-1.22281874 14.08496326 -1.42771076 12.16783494 -1.625 10.25 C-1.74101562 9.18265625 -1.85703125 8.1153125 -1.9765625 7.015625 C-2.00029475 3.96207601 -1.61420985 2.53837579 0 0 Z " fill="#0E8EDC" transform="translate(138,217)"/>
<path d="M0 0 C2.31 0 4.62 0 7 0 C7 1.32 7 2.64 7 4 C6.01 4.495 6.01 4.495 5 5 C4.53476937 6.89533342 4.53476937 6.89533342 4.375 9.0625 C4.189375 11.0115625 4.189375 11.0115625 4 13 C2.68 13 1.36 13 0 13 C0 8.71 0 4.42 0 0 Z " fill="#2A9ADB" transform="translate(323,221)"/>
<path d="M0 0 C0.33 0.66 0.66 1.32 1 2 C0.34 2 -0.32 2 -1 2 C-1 4.97 -1 7.94 -1 11 C-1.99 11 -2.98 11 -4 11 C-4 8.03 -4 5.06 -4 2 C-5.32 2 -6.64 2 -8 2 C-8 5.63 -8 9.26 -8 13 C-8.33 13 -8.66 13 -9 13 C-9.1953125 11.01432292 -9.390625 9.02864583 -9.5859375 7.04296875 C-9.92665391 4.70011858 -9.92665391 4.70011858 -12 2 C-10.75579353 1.4654744 -9.50429064 0.94791389 -8.25 0.4375 C-7.55390625 0.14746094 -6.8578125 -0.14257812 -6.140625 -0.44140625 C-3.66489417 -1.0874455 -2.3639266 -0.94043167 0 0 Z " fill="#E4F6F8" transform="translate(69,219)"/>
<path d="M0 0 C2.31 0 4.62 0 7 0 C7 1.32 7 2.64 7 4 C6.01 4 5.02 4 4 4 C4 6.97 4 9.94 4 13 C2.68 13 1.36 13 0 13 C0 8.71 0 4.42 0 0 Z " fill="#2E9CDD" transform="translate(73,221)"/>
<path d="M0 0 C0.99 0.103125 1.98 0.20625 3 0.3125 C5 3.3125 5 3.3125 5 7.3125 C1.7 7.3125 -1.6 7.3125 -5 7.3125 C-5 0.52083333 -5 0.52083333 0 0 Z " fill="#ECF9FA" transform="translate(77,165.6875)"/>
<path d="M0 0 C0.66 0 1.32 0 2 0 C2 0.99 2 1.98 2 3 C2.66 3 3.32 3 4 3 C4 3.99 4 4.98 4 6 C3.34 6 2.68 6 2 6 C2.66 9.3 3.32 12.6 4 16 C2.35 15.67 0.7 15.34 -1 15 C-1.22211116 13.06403108 -1.42722992 11.12610672 -1.625 9.1875 C-1.74101562 8.10855469 -1.85703125 7.02960938 -1.9765625 5.91796875 C-2 3 -2 3 0 0 Z " fill="#1390DE" transform="translate(246,218)"/>
<path d="M0 0 C2.31 0.33 4.62 0.66 7 1 C7 3.64 7 6.28 7 9 C6.34 9 5.68 9 5 9 C5 8.34 5 7.68 5 7 C2.00847418 7.77479736 2.00847418 7.77479736 -1 9 C-1.33 9.99 -1.66 10.98 -2 12 C-2.125 9.625 -2.125 9.625 -2 7 C-1.34 6.34 -0.68 5.68 0 5 C1.32 5 2.64 5 4 5 C4 4.34 4 3.68 4 3 C2.02 3.33 0.04 3.66 -2 4 C-1.34 2.68 -0.68 1.36 0 0 Z " fill="#0C8EDD" transform="translate(183,221)"/>
<path d="M0 0 C0.66 0 1.32 0 2 0 C2 0.66 2 1.32 2 2 C3.32 2 4.64 2 6 2 C6.33 2.99 6.66 3.98 7 5 C7.66 5 8.32 5 9 5 C9 6.32 9 7.64 9 9 C2.53104925 10.34261242 2.53104925 10.34261242 0.0625 8.75 C-1 7 -1 7 -1 4 C-0.34 3.67 0.32 3.34 1 3 C0.67 2.01 0.34 1.02 0 0 Z " fill="#1994DD" transform="translate(232,224)"/>
<path d="M0 0 C2 2 2 2 2.1953125 3.9453125 C2.13020833 5.96354167 2.06510417 7.98177083 2 10 C1.01 9.67 0.02 9.34 -1 9 C-1 7.02 -1 5.04 -1 3 C-1.99 3.33 -2.98 3.66 -4 4 C-4.33 5.65 -4.66 7.3 -5 9 C-5.99 9 -6.98 9 -8 9 C-8.36190476 3.57142857 -8.36190476 3.57142857 -6.8125 1.125 C-4.38241919 -0.38332602 -2.80984248 -0.36023622 0 0 Z " fill="#1491DC" transform="translate(57,221)"/>
<path d="M0 0 C2.5 0.25 2.5 0.25 4.5 2.25 C4.5 3.9 4.5 5.55 4.5 7.25 C1.2 7.25 -2.1 7.25 -5.5 7.25 C-4.42513369 0.44251337 -4.42513369 0.44251337 0 0 Z " fill="#F0FBFB" transform="translate(337.5,165.75)"/>
<path d="M0 0 C2.0625 0.4375 2.0625 0.4375 4 1 C4 1.66 4 2.32 4 3 C4.99 3 5.98 3 7 3 C7.33 2.01 7.66 1.02 8 0 C8 3.3 8 6.6 8 10 C7.67 8.68 7.34 7.36 7 6 C6.01 6 5.02 6 4 6 C3.67 6.99 3.34 7.98 3 9 C2.01 9 1.02 9 0 9 C-1.36623674 6.26752652 -1.128426 4.01801098 -1 1 C-0.67 0.67 -0.34 0.34 0 0 Z " fill="#D6EFF6" transform="translate(166,221)"/>
<path d="M0 0 C2.6465335 2.6465335 3.59941997 5.56221264 5 9 C4.34 9 3.68 9 3 9 C2.67 9.99 2.34 10.98 2 12 C0.68 12 -0.64 12 -2 12 C-2.99 9.03 -3.98 6.06 -5 3 C-3.68 3 -2.36 3 -1 3 C-0.67 2.01 -0.34 1.02 0 0 Z " fill="#E9F7F9" transform="translate(61,189)"/>
<path d="M0 0 C0.99 0.99 1.98 1.98 3 3 C3 4.32 3 5.64 3 7 C3.639375 7.12375 4.27875 7.2475 4.9375 7.375 C5.618125 7.58125 6.29875 7.7875 7 8 C7.33 8.66 7.66 9.32 8 10 C6.68 10 5.36 10 4 10 C4 11.65 4 13.3 4 15 C2.68 15 1.36 15 0 15 C0 10.05 0 5.1 0 0 Z " fill="#028AD0" transform="translate(87,218)"/>
<path d="M0 0 C0.763125 0.495 1.52625 0.99 2.3125 1.5 C4.92363751 3.24368308 4.92363751 3.24368308 8 3 C9.6875 5 9.6875 5 11 7 C10.113125 6.938125 9.22625 6.87625 8.3125 6.8125 C4.62834788 7.02103691 3.01892731 7.9873818 0 10 C-0.66 10 -1.32 10 -2 10 C-2.33 10.99 -2.66 11.98 -3 13 C-2.52060632 8.28596212 -2.03165952 4.33420699 0 0 Z " fill="#E4F5F7" transform="translate(224,221)"/>
<path d="M0 0 C1.125 3.75 1.125 3.75 0 6 C1.98 5.67 3.96 5.34 6 5 C6 5.66 6 6.32 6 7 C4.02 7.33 2.04 7.66 0 8 C0.33 10.31 0.66 12.62 1 15 C0.01 15 -0.98 15 -2 15 C-4.09350689 11.5980513 -4.17942163 8.94727588 -4 5 C-3.34 5 -2.68 5 -2 5 C-1.7834375 4.0409375 -1.7834375 4.0409375 -1.5625 3.0625 C-1 1 -1 1 0 0 Z " fill="#D0EFF6" transform="translate(252,219)"/>
<path d="M0 0 C2.31 0 4.62 0 7 0 C7 1.32 7 2.64 7 4 C6.01 4.33 5.02 4.66 4 5 C3.67 7.31 3.34 9.62 3 12 C2.01 12 1.02 12 0 12 C0 8.04 0 4.08 0 0 Z " fill="#1190DB" transform="translate(193,221)"/>
<path d="M0 0 C2.97 0.495 2.97 0.495 6 1 C6 1.66 6 2.32 6 3 C7.65 3.33 9.3 3.66 11 4 C11 4.33 11 4.66 11 5 C10.05125 5.28875 9.1025 5.5775 8.125 5.875 C4.94788422 6.76825109 4.94788422 6.76825109 3 9 C2.53993654 11.20250992 2.53993654 11.20250992 2.375 13.625 C2.30023438 14.44226563 2.22546875 15.25953125 2.1484375 16.1015625 C2.09945313 16.72804687 2.05046875 17.35453125 2 18 C1.67 18 1.34 18 1 18 C0.67 12.06 0.34 6.12 0 0 Z " fill="#E8F8FB" transform="translate(308,216)"/>
<path d="M0 0 C0.33 0 0.66 0 1 0 C1.33 3.63 1.66 7.26 2 11 C-1.3 11 -4.6 11 -8 11 C-8 9.68 -8 8.36 -8 7 C-5 5 -5 5 -2 5 C-2 5.66 -2 6.32 -2 7 C-1.34 7 -0.68 7 0 7 C0 4.69 0 2.38 0 0 Z " fill="#41AAE5" transform="translate(190,223)"/>
<path d="M0 0 C0.66 0.33 1.32 0.66 2 1 C1.01 2.98 0.02 4.96 -1 7 C-1.33 6.34 -1.66 5.68 -2 5 C-2.66 5 -3.32 5 -4 5 C-4.12375 5.639375 -4.2475 6.27875 -4.375 6.9375 C-4.58125 7.618125 -4.7875 8.29875 -5 9 C-7.72842061 10.36421031 -9.60953318 9.87807211 -12.625 9.5625 C-13.62789062 9.46066406 -14.63078125 9.35882813 -15.6640625 9.25390625 C-16.43492187 9.17011719 -17.20578125 9.08632812 -18 9 C-18 8.67 -18 8.34 -18 8 C-14.37 8 -10.74 8 -7 8 C-7 5.69 -7 3.38 -7 1 C-4.69 1.33 -2.38 1.66 0 2 C0 1.34 0 0.68 0 0 Z " fill="#D9F0F7" transform="translate(262,158)"/>
<path d="M0 0 C2.64 0 5.28 0 8 0 C8 1.32 8 2.64 8 4 C8.66 4 9.32 4 10 4 C10.03738281 4.62648437 10.07476562 5.25296875 10.11328125 5.8984375 C10.21189453 7.12433594 10.21189453 7.12433594 10.3125 8.375 C10.39951172 9.59316406 10.39951172 9.59316406 10.48828125 10.8359375 C10.82990528 13.37921338 10.82990528 13.37921338 14 15 C12.35 15.33 10.7 15.66 9 16 C6.96834048 11.66579301 6.47939368 7.71403788 6 3 C4.02 2.34 2.04 1.68 0 1 C0 0.67 0 0.34 0 0 Z " fill="#F0FBFB" transform="translate(102,220)"/>
<path d="M0 0 C0 0.66 0 1.32 0 2 C0.66 2 1.32 2 2 2 C2 2.66 2 3.32 2 4 C3.32 4.33 4.64 4.66 6 5 C6 5.99 6 6.98 6 8 C4.52093108 8.02689216 3.04172517 8.04634621 1.5625 8.0625 C0.32693359 8.07990234 0.32693359 8.07990234 -0.93359375 8.09765625 C-3 8 -3 8 -4 7 C-4.04080783 5.00041636 -4.04254356 2.99954746 -4 1 C-2 0 -2 0 0 0 Z " fill="#1391DE" transform="translate(256,226)"/>
<path d="M0 0 C0.33 0 0.66 0 1 0 C1 5.28 1 10.56 1 16 C-0.32 16 -1.64 16 -3 16 C-3 13.69 -3 11.38 -3 9 C-4.32 8.67 -5.64 8.34 -7 8 C-5.35 7.67 -3.7 7.34 -2 7 C-1.34 4.69 -0.68 2.38 0 0 Z " fill="#1690DD" transform="translate(308,218)"/>
<path d="M0 0 C4.95 0 9.9 0 15 0 C14.01 1.485 14.01 1.485 13 3 C13 2.34 13 1.68 13 1 C10.03 1 7.06 1 4 1 C4 1.99 4 2.98 4 4 C3.34 4 2.68 4 2 4 C1.7525 4.61875 1.505 5.2375 1.25 5.875 C-0.20628639 8.35068687 -1.37812506 8.95125002 -4 10 C-2.8741386 6.46157845 -1.66905241 3.33810482 0 0 Z " fill="#058CDC" transform="translate(44,142)"/>
<path d="M0 0 C0.99 0 1.98 0 3 0 C3 5.28 3 10.56 3 16 C2.01 16 1.02 16 0 16 C0 10.72 0 5.44 0 0 Z " fill="#0286D8" transform="translate(176,217)"/>
<path d="M0 0 C1.98 0 3.96 0 6 0 C6 1.32 6 2.64 6 4 C5.01 4.495 5.01 4.495 4 5 C3.59270772 7.32156597 3.25561323 9.6568787 3 12 C2.01 12 1.02 12 0 12 C0 8.04 0 4.08 0 0 Z " fill="#0588DA" transform="translate(264,221)"/>
<path d="M0 0 C1.32 1.32 2.64 2.64 4 4 C3.67 4.66 3.34 5.32 3 6 C2.01 6 1.02 6 0 6 C0 8.31 0 10.62 0 13 C-3.63 13 -7.26 13 -11 13 C-11 12.67 -11 12.34 -11 12 C-7.7 12 -4.4 12 -1 12 C-2.01160848 7.60685207 -2.01160848 7.60685207 -5.125 4.625 C-5.74375 4.41875 -6.3625 4.2125 -7 4 C-5.35 4 -3.7 4 -2 4 C-1.34 2.68 -0.68 1.36 0 0 Z " fill="#249ADD" transform="translate(343,161)"/>
<path d="M0 0 C0 0.33 0 0.66 0 1 C-1.27875 1.12375 -2.5575 1.2475 -3.875 1.375 C-7.34790936 1.69042399 -7.34790936 1.69042399 -10 4 C-12.32275177 4.40047444 -14.65739357 4.7397104 -17 5 C-17.33 5.99 -17.66 6.98 -18 8 C-18.99 8.33 -19.98 8.66 -21 9 C-19.95852986 5.2507075 -18.48629775 2.810058 -15.12890625 0.71484375 C-10.31968465 -0.8999958 -5.00212388 -0.26717576 0 0 Z " fill="#1B95DD" transform="translate(144,155)"/>
<path d="M0 0 C3.2645028 3.2645028 3.93236055 7.41047299 4.125 11.9375 C4.08375 12.618125 4.0425 13.29875 4 14 C3.01 13.67 2.02 13.34 1 13 C1 12.01 1 11.02 1 10 C0.01 10 -0.98 10 -2 10 C-2 7.69 -2 5.38 -2 3 C-1.34 3 -0.68 3 0 3 C0 2.01 0 1.02 0 0 Z " fill="#DCF2F7" transform="translate(213,221)"/>
<path d="M0 0 C0.226875 0.61875 0.45375 1.2375 0.6875 1.875 C2.37929835 4.61410209 3.99244161 5.05024472 7 6 C7 6.66 7 7.32 7 8 C4.03 7.505 4.03 7.505 1 7 C1.33 7.99 1.66 8.98 2 10 C1.01 10.33 0.02 10.66 -1 11 C-2.1577506 7.52674819 -2.06866652 4.63932552 -2 1 C-1.34 0.67 -0.68 0.34 0 0 Z " fill="#CFEEF6" transform="translate(279,223)"/>
<path d="M0 0 C-0.33 0.99 -0.66 1.98 -1 3 C-3.0625 3.6875 -3.0625 3.6875 -5 4 C-5.33 5.65 -5.66 7.3 -6 9 C-6.66 9 -7.32 9 -8 9 C-8 9.66 -8 10.32 -8 11 C-9.32 11.33 -10.64 11.66 -12 12 C-10.88180215 6.78174339 -8.68651358 4.41412591 -4.75390625 1.1015625 C-3 0 -3 0 0 0 Z " fill="#1193DE" transform="translate(74,155)"/>
<path d="M0 0 C0.99 0.33 1.98 0.66 3 1 C3 4.96 3 8.92 3 13 C3.99 13 4.98 13 6 13 C6 10.69 6 8.38 6 6 C6.33 6 6.66 6 7 6 C7 8.64 7 11.28 7 14 C5.35 14 3.7 14 2 14 C1.87882813 13.22914063 1.75765625 12.45828125 1.6328125 11.6640625 C1.46523437 10.66117188 1.29765625 9.65828125 1.125 8.625 C0.96257812 7.62726563 0.80015625 6.62953125 0.6328125 5.6015625 C0.2041198 2.8574885 0.2041198 2.8574885 -2 1 C-1.34 0.67 -0.68 0.34 0 0 Z " fill="#CAEAF3" transform="translate(190,220)"/>
<path d="M0 0 C2.97 0 5.94 0 9 0 C10.1577506 3.47325181 10.06866652 6.36067448 10 10 C9.01 9.67 8.02 9.34 7 9 C6.71125 8.195625 6.4225 7.39125 6.125 6.5625 C5.22055781 3.76071559 5.22055781 3.76071559 2.375 2.6875 C1.59125 2.460625 0.8075 2.23375 0 2 C0 1.34 0 0.68 0 0 Z " fill="#C3E8F4" transform="translate(235,221)"/>
<path d="M0 0 C2.475 0.495 2.475 0.495 5 1 C4.01 4.96 3.02 8.92 2 13 C0 11 0 11 -0.1953125 8.3984375 C-0.17210938 7.40070313 -0.14890625 6.40296875 -0.125 5.375 C-0.10695313 4.37210938 -0.08890625 3.36921875 -0.0703125 2.3359375 C-0.04710938 1.56507813 -0.02390625 0.79421875 0 0 Z " fill="#F2FBFB" transform="translate(119,160)"/>
<path d="M0 0 C0.33 0 0.66 0 1 0 C1 5.61 1 11.22 1 17 C2.32 16.67 3.64 16.34 5 16 C3.68 18.64 2.36 21.28 1 24 C0.67 24 0.34 24 0 24 C0 16.08 0 8.16 0 0 Z " fill="#D3F1FA" transform="translate(31,142)"/>
<path d="M0 0 C0.1875 2.875 0.1875 2.875 0 6 C-3 8 -3 8 -7 8 C-7 8.66 -7 9.32 -7 10 C-6.34 10.33 -5.68 10.66 -5 11 C-5.66 11 -6.32 11 -7 11 C-7 12.98 -7 14.96 -7 17 C-6.01 17.33 -5.02 17.66 -4 18 C-5.32 18 -6.64 18 -8 18 C-8 14.37 -8 10.74 -8 7 C-6.68 6.67 -5.36 6.34 -4 6 C-3.814375 4.7934375 -3.814375 4.7934375 -3.625 3.5625 C-3.41875 2.716875 -3.2125 1.87125 -3 1 C-1 0 -1 0 0 0 Z " fill="#058BDB" transform="translate(165,149)"/>
<path d="M0 0 C3.58994826 1.33340936 6.95520055 2.65115471 10 5 C10.3125 7.6875 10.3125 7.6875 10 10 C9.67 9.34 9.34 8.68 9 8 C8.01 8.33 7.02 8.66 6 9 C6 7.68 6 6.36 6 5 C4.68 5 3.36 5 2 5 C2 4.34 2 3.68 2 3 C1.34 2.67 0.68 2.34 0 2 C0 1.34 0 0.68 0 0 Z " fill="#078EE2" transform="translate(232,221)"/>
<path d="M0 0 C0.33 0 0.66 0 1 0 C1 4.95 1 9.9 1 15 C-1.31 15.33 -3.62 15.66 -6 16 C-7.92283085 17.41591827 -7.92283085 17.41591827 -9 19 C-9.66 17.68 -10.32 16.36 -11 15 C-8.08291076 13.01637931 -6.87619096 13.0123809 -3.25 13.375 C-2.1775 13.58125 -1.105 13.7875 0 14 C0 9.38 0 4.76 0 0 Z " fill="#2D9CDC" transform="translate(118,155)"/>
<path d="M0 0 C0.99 0 1.98 0 3 0 C3 3.96 3 7.92 3 12 C2.01 12 1.02 12 0 12 C0 8.04 0 4.08 0 0 Z " fill="#068EDC" transform="translate(201,221)"/>
<path d="M0 0 C0.33 0 0.66 0 1 0 C1.33 3.63 1.66 7.26 2 11 C0.35 10.67 -1.3 10.34 -3 10 C-3 9.34 -3 8.68 -3 8 C-3.99 8 -4.98 8 -6 8 C-5.67 7.01 -5.34 6.02 -5 5 C-3.02 5.495 -3.02 5.495 -1 6 C-0.67 4.02 -0.34 2.04 0 0 Z " fill="#5AB2E3" transform="translate(108,223)"/>
<path d="M0 0 C2.375 -0.125 2.375 -0.125 5 0 C7 2 7 2 7.125 4.625 C7.08375 5.40875 7.0425 6.1925 7 7 C5.02 7 3.04 7 1 7 C1 6.34 1 5.68 1 5 C1.99 5 2.98 5 4 5 C4 4.34 4 3.68 4 3 C2.68 2.67 1.36 2.34 0 2 C0 1.34 0 0.68 0 0 Z " fill="#098DD9" transform="translate(314,221)"/>
<path d="M0 0 C2.18975773 3.28463659 2.99806563 6.20696275 4 10 C2.68 10 1.36 10 0 10 C-0.66 10.66 -1.32 11.32 -2 12 C-1.85904936 10.3745692 -1.71207913 8.74965949 -1.5625 7.125 C-1.48128906 6.22007812 -1.40007813 5.31515625 -1.31640625 4.3828125 C-1 2 -1 2 0 0 Z " fill="#1194E1" transform="translate(51,180)"/>
<path d="M0 0 C0.99 0 1.98 0 3 0 C3 0.66 3 1.32 3 2 C4.98 1.34 6.96 0.68 9 0 C9.33 0.66 9.66 1.32 10 2 C9.360625 2.28875 8.72125 2.5775 8.0625 2.875 C5.84793921 3.82823451 5.84793921 3.82823451 5 6 C3.35 6 1.7 6 0 6 C0 4.02 0 2.04 0 0 Z " fill="#0F93E3" transform="translate(75,160)"/>
<path d="M0 0 C0.66 2.64 1.32 5.28 2 8 C1.21625 7.814375 0.4325 7.62875 -0.375 7.4375 C-2.97089775 6.74037734 -2.97089775 6.74037734 -5 8 C-5.1875 5.125 -5.1875 5.125 -5 2 C-2 0 -2 0 0 0 Z " fill="#F2FAFA" transform="translate(273,226)"/>
<path d="M0 0 C1 3 1 3 0.22265625 5.04296875 C-0.16019531 5.75066406 -0.54304688 6.45835937 -0.9375 7.1875 C-1.31777344 7.90292969 -1.69804687 8.61835938 -2.08984375 9.35546875 C-2.54037109 10.16951172 -2.54037109 10.16951172 -3 11 C-3.33 11 -3.66 11 -4 11 C-4.33 8.03 -4.66 5.06 -5 2 C-3.35 1.34 -1.7 0.68 0 0 Z " fill="#EEF9F9" transform="translate(326,156)"/>
<path d="M0 0 C0.99 0 1.98 0 3 0 C3.33 1.98 3.66 3.96 4 6 C3.34 6 2.68 6 2 6 C1.67 7.32 1.34 8.64 1 10 C1 9.01 1 8.02 1 7 C0.01 7 -0.98 7 -2 7 C-2 6.01 -2 5.02 -2 4 C-1.34 4 -0.68 4 0 4 C0 2.68 0 1.36 0 0 Z " fill="#1896DE" transform="translate(112,217)"/>
<path d="M0 0 C0.99 0 1.98 0 3 0 C3 4.62 3 9.24 3 14 C2.34 13.67 1.68 13.34 1 13 C0.5859375 10.05859375 0.5859375 10.05859375 0.375 6.4375 C0.30023438 5.23996094 0.22546875 4.04242188 0.1484375 2.80859375 C0.09945313 1.88175781 0.05046875 0.95492187 0 0 Z " fill="#018ADF" transform="translate(315,156)"/>
<path d="M0 0 C-0.598125 0.268125 -1.19625 0.53625 -1.8125 0.8125 C-4.0046268 1.85839358 -4.0046268 1.85839358 -5.375 3.4375 C-7.62178893 5.59787397 -10.19435073 6.69069701 -13 8 C-10.75373981 2.28224679 -6.06506476 -1.81951943 0 0 Z " fill="#1290DE" transform="translate(236,142)"/>
<path d="M0 0 C0.66 0.66 1.32 1.32 2 2 C1.67 2.66 1.34 3.32 1 4 C2.98 3.67 4.96 3.34 7 3 C7 3.66 7 4.32 7 5 C5.35 5.66 3.7 6.32 2 7 C2 8.98 2 10.96 2 13 C1.34 13 0.68 13 0 13 C0 11.02 0 9.04 0 7 C-0.66 6.67 -1.32 6.34 -2 6 C-1.34 4.02 -0.68 2.04 0 0 Z " fill="#D9F7FC" transform="translate(98,221)"/>
<path d="M0 0 C0.66 0 1.32 0 2 0 C2 0.99 2 1.98 2 3 C2.66 3 3.32 3 4 3 C4 3.99 4 4.98 4 6 C3.34 6 2.68 6 2 6 C2 7.98 2 9.96 2 12 C1.67 12 1.34 12 1 12 C1 9.69 1 7.38 1 5 C0.01 5.33 -0.98 5.66 -2 6 C-1.125 1.125 -1.125 1.125 0 0 Z " fill="#0689D9" transform="translate(246,218)"/>
<path d="M0 0 C1.65 0 3.3 0 5 0 C5 3.63 5 7.26 5 11 C3.68 10.67 2.36 10.34 1 10 C1.66 10 2.32 10 3 10 C3 7.36 3 4.72 3 2 C2.01 2 1.02 2 0 2 C0 1.34 0 0.68 0 0 Z " fill="#3CA4DD" transform="translate(173,190)"/>
<path d="M0 0 C2.64 0 5.28 0 8 0 C8 1.65 8 3.3 8 5 C7.01 5 6.02 5 5 5 C4.67 4.34 4.34 3.68 4 3 C2.68 3.33 1.36 3.66 0 4 C0 2.68 0 1.36 0 0 Z " fill="#0190EC" transform="translate(246,178)"/>
<path d="M0 0 C2.375 -0.1875 2.375 -0.1875 5 0 C5.66 0.99 6.32 1.98 7 3 C6.01 3 5.02 3 4 3 C4 3.66 4 4.32 4 5 C2.35 4.67 0.7 4.34 -1 4 C-0.67 2.68 -0.34 1.36 0 0 Z " fill="#38A5E2" transform="translate(334,221)"/>
<path d="M0 0 C0.66 0.66 1.32 1.32 2 2 C4.06874034 2.6425235 4.06874034 2.6425235 6 3 C6 2.34 6 1.68 6 1 C6.99 1 7.98 1 9 1 C9 2.32 9 3.64 9 5 C6.03 5 3.06 5 0 5 C0 3.35 0 1.7 0 0 Z " fill="#028ADA" transform="translate(332,223)"/>
<path d="M0 0 C1.66611905 -0.042721 3.33382885 -0.04063832 5 0 C6 1 6 1 6.09765625 2.84765625 C6.06510417 4.8984375 6.03255208 6.94921875 6 9 C5.01 8.67 4.02 8.34 3 8 C3 5.69 3 3.38 3 1 C2.01 0.67 1.02 0.34 0 0 Z " fill="#058EDF" transform="translate(53,222)"/>
<path d="M0 0 C2.31 0.33 4.62 0.66 7 1 C6.67 2.32 6.34 3.64 6 5 C5.34 5 4.68 5 4 5 C4 4.34 4 3.68 4 3 C2.02 3.33 0.04 3.66 -2 4 C-1.34 2.68 -0.68 1.36 0 0 Z " fill="#1591D6" transform="translate(183,221)"/>
<path d="M0 0 C1.134375 0.020625 2.26875 0.04125 3.4375 0.0625 C3.4375 0.3925 3.4375 0.7225 3.4375 1.0625 C1.9834375 1.495625 1.9834375 1.495625 0.5 1.9375 C-2.66914203 2.70464682 -2.66914203 2.70464682 -3.5625 5.0625 C-1.5825 4.7325 0.3975 4.4025 2.4375 4.0625 C2.4375 4.7225 2.4375 5.3825 2.4375 6.0625 C0.1275 6.7225 -2.1825 7.3825 -4.5625 8.0625 C-4.60491723 5.72955225 -4.60342937 3.39547433 -4.5625 1.0625 C-3.5625 0.0625 -3.5625 0.0625 0 0 Z " fill="#E2F9FC" transform="translate(184.5625,219.9375)"/>
<path d="M0 0 C0.33 0 0.66 0 1 0 C1 3.96 1 7.92 1 12 C-0.98 12.33 -2.96 12.66 -5 13 C-4.34 12.34 -3.68 11.68 -3 11 C-2.745411 8.99511162 -2.49443135 6.98801927 -2.34375 4.97265625 C-2 3 -2 3 0 0 Z " fill="#A8D7EA" transform="translate(61,221)"/>
<path d="M0 0 C0.99 0.495 0.99 0.495 2 1 C2 2.32 2 3.64 2 5 C2.639375 5.12375 3.27875 5.2475 3.9375 5.375 C4.618125 5.58125 5.29875 5.7875 6 6 C6.33 6.66 6.66 7.32 7 8 C4.69 8 2.38 8 0 8 C0 5.36 0 2.72 0 0 Z " fill="#028DE7" transform="translate(88,220)"/>
<path d="M0 0 C0.33 0 0.66 0 1 0 C0.67 2.31 0.34 4.62 0 7 C-3 7 -3 7 -6 5 C-6 3.68 -6 2.36 -6 1 C-3.525 1.99 -3.525 1.99 -1 3 C-0.67 2.01 -0.34 1.02 0 0 Z " fill="#67BBE9" transform="translate(97,220)"/>
<path d="M0 0 C1.485 0.99 1.485 0.99 3 2 C4.65549531 2.38499891 6.3222433 2.72793135 8 3 C7.67 4.32 7.34 5.64 7 7 C6.67 6.67 6.34 6.34 6 6 C4.00041636 5.95919217 1.99954746 5.95745644 0 6 C-0.38218767 4.34385343 -0.71395102 2.67542976 -1 1 C-0.67 0.67 -0.34 0.34 0 0 Z " fill="#ECF8FA" transform="translate(253,216)"/>
<path d="M0 0 C0 0.66 0 1.32 0 2 C1.32 2.33 2.64 2.66 4 3 C2.63875 3.37125 2.63875 3.37125 1.25 3.75 C-2.10351489 5.03981342 -3.67708236 6.31971042 -6 9 C-6.25 6.75 -6.25 6.75 -6 4 C-2.75675676 0 -2.75675676 0 0 0 Z " fill="#D9F3F8" transform="translate(113,152)"/>
<path d="M0 0 C1.32 0 2.64 0 4 0 C4 2.31 4 4.62 4 7 C2.68 7 1.36 7 0 7 C0 4.69 0 2.38 0 0 Z " fill="#E2F6FA" transform="translate(301,227)"/>
<path d="M0 0 C1.32 0.33 2.64 0.66 4 1 C3.34 3.31 2.68 5.62 2 8 C-0.97 7.505 -0.97 7.505 -4 7 C-2.68 6.67 -1.36 6.34 0 6 C0 4.02 0 2.04 0 0 Z " fill="#3AA2E0" transform="translate(305,217)"/>
<path d="M0 0 C1.29550781 -0.02126953 1.29550781 -0.02126953 2.6171875 -0.04296875 C5.2491288 0.19890748 6.86480544 0.85766459 9.125 2.1875 C8.465 2.8475 7.805 3.5075 7.125 4.1875 C7.125 3.5275 7.125 2.8675 7.125 2.1875 C1.88056896 2.01169274 1.88056896 2.01169274 -3.25 2.8125 C-4.054375 2.998125 -4.054375 2.998125 -4.875 3.1875 C-5.535 2.5275 -6.195 1.8675 -6.875 1.1875 C-4.42528376 -0.03735812 -2.73265539 0.02027192 0 0 Z " fill="#108FDA" transform="translate(336.875,154.8125)"/>
<path d="M0 0 C0.33 0.99 0.66 1.98 1 3 C1.99 3.33 2.98 3.66 4 4 C3.01 4 2.02 4 1 4 C1 8.29 1 12.58 1 17 C0.67 17 0.34 17 0 17 C0 14.36 0 11.72 0 9 C-0.99 8.67 -1.98 8.34 -3 8 C-2.01 8 -1.02 8 0 8 C0 6.68 0 5.36 0 4 C-0.66 3.67 -1.32 3.34 -2 3 C-1.34 3 -0.68 3 0 3 C0 2.01 0 1.02 0 0 Z " fill="#D9F8FC" transform="translate(200,217)"/>
<path d="M0 0 C0.33 0 0.66 0 1 0 C1 3.3 1 6.6 1 10 C0.01 10 -0.98 10 -2 10 C-2.1953125 3.9453125 -2.1953125 3.9453125 -2 2 C-1.34 1.34 -0.68 0.68 0 0 Z " fill="#0186D6" transform="translate(127,223)"/>
<path d="M0 0 C2.64 0 5.28 0 8 0 C8 1.32 8 2.64 8 4 C8.66 4 9.32 4 10 4 C10 6.64 10 9.28 10 12 C9.67 12 9.34 12 9 12 C9 9.69 9 7.38 9 5 C8.34 5 7.68 5 7 5 C6 4 5 3 4 2 C1.90010348 0.82425289 1.90010348 0.82425289 0 0 Z " fill="#CAEAF1" transform="translate(102,220)"/>
<path d="M0 0 C2.83374881 3.20336822 3.5205537 5.78087253 4 10 C2.68 9.34 1.36 8.68 0 8 C0 5.36 0 2.72 0 0 Z " fill="#1995DF" transform="translate(251,149)"/>
<path d="M0 0 C0.99 0 1.98 0 3 0 C2.25 4.75 2.25 4.75 0 7 C-2.625 7.125 -2.625 7.125 -5 7 C-3.68 6.67 -2.36 6.34 -1 6 C-0.67 4.02 -0.34 2.04 0 0 Z " fill="#1992DB" transform="translate(170,227)"/>
<path d="M0 0 C0.99 0.33 1.98 0.66 3 1 C3 2.65 3 4.3 3 6 C1.68 6 0.36 6 -1 6 C-1.042721 4.33388095 -1.04063832 2.66617115 -1 1 C-0.67 0.67 -0.34 0.34 0 0 Z " fill="#CAEBF7" transform="translate(148,224)"/>
<path d="M0 0 C0.99 0 1.98 0 3 0 C3 0.66 3 1.32 3 2 C2.01 2 1.02 2 0 2 C0 2.66 0 3.32 0 4 C1.98 4 3.96 4 6 4 C5.01 4.33 4.02 4.66 3 5 C3 5.66 3 6.32 3 7 C1.0625 6.6875 1.0625 6.6875 -1 6 C-1.33 5.01 -1.66 4.02 -2 3 C-1.34 2.01 -0.68 1.02 0 0 Z " fill="#9DDDF2" transform="translate(315,224)"/>
<path d="M0 0 C2.76223278 2.76223278 2.57856291 5.20706617 3 9 C1.68 9 0.36 9 -1 9 C-1.125 2.25 -1.125 2.25 0 0 Z " fill="#2D9DE2" transform="translate(42,225)"/>
<path d="M0 0 C0.33 0 0.66 0 1 0 C1.66 3.3 2.32 6.6 3 10 C1.68 9.67 0.36 9.34 -1 9 C-1.125 2.25 -1.125 2.25 0 0 Z " fill="#0E8FE1" transform="translate(275,224)"/>
<path d="M0 0 C0.99 0 1.98 0 3 0 C2.34 2.97 1.68 5.94 1 9 C0.01 9 -0.98 9 -2 9 C-1.34 6.03 -0.68 3.06 0 0 Z " fill="#058BDB" transform="translate(221,221)"/>
<path d="M0 0 C2.3431213 0.25561323 4.67843403 0.59270772 7 1 C7.33 1.66 7.66 2.32 8 3 C7.01 4.485 7.01 4.485 6 6 C4.125 5.8125 4.125 5.8125 2 5 C0.75 2.4375 0.75 2.4375 0 0 Z " fill="#1593DF" transform="translate(120,220)"/>
<path d="M0 0 C2.31 0 4.62 0 7 0 C7.33 1.65 7.66 3.3 8 5 C7.01 5 6.02 5 5 5 C4.67 4.34 4.34 3.68 4 3 C1.97536745 2.34786708 1.97536745 2.34786708 0 2 C0 1.34 0 0.68 0 0 Z " fill="#048BDC" transform="translate(165,219)"/>
<path d="M0 0 C1.65 0 3.3 0 5 0 C4.67 2.31 4.34 4.62 4 7 C3.67 6.01 3.34 5.02 3 4 C1.68 4.33 0.36 4.66 -1 5 C-0.67 3.35 -0.34 1.7 0 0 Z " fill="#F8FDF8" transform="translate(134,183)"/>
<path d="M0 0 C2 2 2 2 2.125 5.625 C2.08375 6.73875 2.0425 7.8525 2 9 C1.01 8.67 0.02 8.34 -1 8 C-1.04241723 5.66705225 -1.04092937 3.33297433 -1 1 C-0.67 0.67 -0.34 0.34 0 0 Z " fill="#038ADD" transform="translate(145,223)"/>
<path d="M0 0 C2.625 -0.1875 2.625 -0.1875 5 0 C5.66 1.32 6.32 2.64 7 4 C4.03 3.67 1.06 3.34 -2 3 C-1.34 2.01 -0.68 1.02 0 0 Z " fill="#1B92DA" transform="translate(282,221)"/>
<path d="M0 0 C0.99 0.495 0.99 0.495 2 1 C2 2.32 2 3.64 2 5 C3.32 4.67 4.64 4.34 6 4 C6 4.66 6 5.32 6 6 C5.01 6 4.02 6 3 6 C3 6.66 3 7.32 3 8 C2.01 7.67 1.02 7.34 0 7 C0 4.69 0 2.38 0 0 Z " fill="#1897E1" transform="translate(244,177)"/>
<path d="M0 0 C2.97 0.495 2.97 0.495 6 1 C5.67 3.97 5.34 6.94 5 10 C4.67 10 4.34 10 4 10 C3.67 8.02 3.34 6.04 3 4 C2.34 4 1.68 4 1 4 C0.67 2.68 0.34 1.36 0 0 Z " fill="#0387DA" transform="translate(40,223)"/>
<path d="M0 0 C2.64 0 5.28 0 8 0 C7.01 0.66 6.02 1.32 5 2 C4.26656572 5.06556598 4.26656572 5.06556598 4 8 C2.66666667 5.33333333 1.33333333 2.66666667 0 0 Z " fill="#2B9CDE" transform="translate(87,217)"/>
<path d="M0 0 C0.66 0 1.32 0 2 0 C2.33 0.99 2.66 1.98 3 3 C-0.13498292 4.85776765 -2.37471432 5.20140476 -6 5 C-5.195625 4.360625 -4.39125 3.72125 -3.5625 3.0625 C-1.7249496 1.59396498 -1.7249496 1.59396498 0 0 Z " fill="#DCF4F9" transform="translate(279,197)"/>
<path d="M0 0 C0.99 0.33 1.98 0.66 3 1 C3 2.65 3 4.3 3 6 C0 5 0 5 -2 4 C-2 3.01 -2 2.02 -2 1 C-1.34 0.67 -0.68 0.34 0 0 Z " fill="#0092EC" transform="translate(68,192)"/>
<path d="M0 0 C0.33 0 0.66 0 1 0 C1.33 1.65 1.66 3.3 2 5 C3.32 5.33 4.64 5.66 6 6 C6 6.99 6 7.98 6 9 C4.68 9 3.36 9 2 9 C-0.29013653 5.5647952 -0.17842973 4.014669 0 0 Z " fill="#038FE6" transform="translate(163,224)"/>
<path d="M0 0 C0.33 0 0.66 0 1 0 C1.33 3.63 1.66 7.26 2 11 C0.68 11 -0.64 11 -2 11 C-1.34 7.37 -0.68 3.74 0 0 Z " fill="#3FA2DE" transform="translate(190,223)"/>
<path d="M0 0 C0.99 0 1.98 0 3 0 C3 1.98 3 3.96 3 6 C2.01 6.33 1.02 6.66 0 7 C0 4.69 0 2.38 0 0 Z " fill="#D9F4FA" transform="translate(53,224)"/>
<path d="M0 0 C1.65 0 3.3 0 5 0 C4.67 2.97 4.34 5.94 4 9 C2 5 2 5 2 2 C1.34 1.34 0.68 0.68 0 0 Z " fill="#018EE4" transform="translate(103,223)"/>
<path d="M0 0 C0.66 0 1.32 0 2 0 C2.02694851 1.95825873 2.04637218 3.91662226 2.0625 5.875 C2.07410156 6.96554688 2.08570313 8.05609375 2.09765625 9.1796875 C2 12 2 12 1 14 C0.01 13.67 -0.98 13.34 -2 13 C-1.67 12.34 -1.34 11.68 -1 11 C-0.34 11 0.32 11 1 11 C0.67 7.37 0.34 3.74 0 0 Z " fill="#EBF8F8" transform="translate(173,220)"/>
<path d="M0 0 C1.32 0.33 2.64 0.66 4 1 C4 2.65 4 4.3 4 6 C2.68 6 1.36 6 0 6 C0 4.02 0 2.04 0 0 Z " fill="#F0FBFC" transform="translate(301,217)"/>
<path d="M0 0 C0.33 1.32 0.66 2.64 1 4 C-0.98 4.99 -2.96 5.98 -5 7 C-5.99 6.34 -6.98 5.68 -8 5 C-6.865625 4.731875 -5.73125 4.46375 -4.5625 4.1875 C-3.386875 3.795625 -2.21125 3.40375 -1 3 C-0.67 2.01 -0.34 1.02 0 0 Z " fill="#D4EFF6" transform="translate(350,196)"/>
<path d="M0 0 C1.98 0 3.96 0 6 0 C6 2.31 6 4.62 6 7 C5.34 7 4.68 7 4 7 C3.896875 6.21625 3.79375 5.4325 3.6875 4.625 C3.22404978 1.66954819 3.22404978 1.66954819 0 0 Z " fill="#EAF9F9" transform="translate(135,182)"/>
<path d="M0 0 C1.32 0 2.64 0 4 0 C3.67 2.64 3.34 5.28 3 8 C2.34 8 1.68 8 1 8 C0.67 5.36 0.34 2.72 0 0 Z " fill="#B0E1F0" transform="translate(217,221)"/>
<path d="M0 0 C2.97 0.495 2.97 0.495 6 1 C6.33 1.99 6.66 2.98 7 4 C5.35 4 3.7 4 2 4 C1.34 2.68 0.68 1.36 0 0 Z " fill="#2495DA" transform="translate(280,230)"/>
<path d="M0 0 C0.66 0 1.32 0 2 0 C2 0.66 2 1.32 2 2 C3.32 2 4.64 2 6 2 C6 3.32 6 4.64 6 6 C5.01 6 4.02 6 3 6 C3 5.01 3 4.02 3 3 C2.01 2.67 1.02 2.34 0 2 C0 1.34 0 0.68 0 0 Z " fill="#62B8E6" transform="translate(232,224)"/>
<path d="M0 0 C1.98 0 3.96 0 6 0 C6 1.32 6 2.64 6 4 C4.35 3.67 2.7 3.34 1 3 C0.67 2.01 0.34 1.02 0 0 Z " fill="#1B94D6" transform="translate(74,221)"/>
<path d="M0 0 C1.65 0 3.3 0 5 0 C5 3 5 3 3 6 C2.01 5.67 1.02 5.34 0 5 C0.66 5 1.32 5 2 5 C2 3.68 2 2.36 2 1 C1.34 0.67 0.68 0.34 0 0 Z " fill="#D9F5F9" transform="translate(328,220)"/>
<path d="M0 0 C0.66 0 1.32 0 2 0 C2.33 1.98 2.66 3.96 3 6 C1.68 6 0.36 6 -1 6 C-1.042721 4.33388095 -1.04063832 2.66617115 -1 1 C-0.67 0.67 -0.34 0.34 0 0 Z " fill="#2098E1" transform="translate(138,217)"/>
<path d="M0 0 C0.556875 0.7115625 0.556875 0.7115625 1.125 1.4375 C3.62646962 3.52205802 5.81593418 3.64621491 9 4 C9 4.33 9 4.66 9 5 C2.84765625 5.87890625 2.84765625 5.87890625 1 6 C0 5 0 5 -0.0625 2.4375 C-0.041875 1.633125 -0.02125 0.82875 0 0 Z " fill="#0D8FD9" transform="translate(332,187)"/>
<path d="M0 0 C0.99 0.66 1.98 1.32 3 2 C3 2.99 3 3.98 3 5 C0.03 4.505 0.03 4.505 -3 4 C-2.01 2.68 -1.02 1.36 0 0 Z " fill="#0E93E5" transform="translate(112,155)"/>
<path d="M0 0 C1.65 0 3.3 0 5 0 C4.67 1.32 4.34 2.64 4 4 C2.35 4 0.7 4 -1 4 C-0.67 2.68 -0.34 1.36 0 0 Z " fill="#E7F5F8" transform="translate(235,155)"/>
<path d="M0 0 C0 0.66 0 1.32 0 2 C0.66 2 1.32 2 2 2 C1.67 2.99 1.34 3.98 1 5 C0.01 5 -0.98 5 -2 5 C-2 4.01 -2 3.02 -2 2 C-2.66 1.67 -3.32 1.34 -4 1 C-2 0 -2 0 0 0 Z " fill="#69BCE9" transform="translate(256,226)"/>
<path d="M0 0 C0.66 0 1.32 0 2 0 C1.50168276 3.68754757 0.89932357 5.60490662 -2 8 C-2.20086443 4.28400809 -2.1519437 3.22791555 0 0 Z " fill="#1291DB" transform="translate(210,189)"/>
</svg>
